<?xml version="1.0" encoding="utf-8" standalone="no"?>
<!DOCTYPE svg PUBLIC "-//W3C//DTD SVG 1.1//EN"
  "http://www.w3.org/Graphics/SVG/1.1/DTD/svg11.dtd">
<svg xmlns:xlink="http://www.w3.org/1999/xlink" width="216pt" height="201.6pt" viewBox="0 0 216 201.6" xmlns="http://www.w3.org/2000/svg" version="1.1">
 <metadata>
  <rdf:RDF xmlns:dc="http://purl.org/dc/elements/1.1/" xmlns:cc="http://creativecommons.org/ns#" xmlns:rdf="http://www.w3.org/1999/02/22-rdf-syntax-ns#">
   <cc:Work>
    <dc:type rdf:resource="http://purl.org/dc/dcmitype/StillImage"/>
    <dc:date>2024-10-08T12:44:37.965849</dc:date>
    <dc:format>image/svg+xml</dc:format>
    <dc:creator>
     <cc:Agent>
      <dc:title>Matplotlib v3.8.0, https://matplotlib.org/</dc:title>
     </cc:Agent>
    </dc:creator>
   </cc:Work>
  </rdf:RDF>
 </metadata>
 <defs>
  <style type="text/css">*{stroke-linejoin: round; stroke-linecap: butt}</style>
 </defs>
 <g id="figure_1">
  <g id="patch_1">
   <path d="M 0 201.6 
L 216 201.6 
L 216 0 
L 0 0 
z
" style="fill: #ffffff"/>
  </g>
  <g id="axes_1">
   <g id="patch_2">
    <path d="M 27 179.424 
L 194.4 179.424 
L 194.4 24.192 
L 27 24.192 
z
" style="fill: #ffffff"/>
   </g>
   <g id="PathCollection_1">
    <defs>
     <path id="m7f331f7108" d="M 0 1.581139 
C 0.419323 1.581139 0.821528 1.41454 1.118034 1.118034 
C 1.41454 0.821528 1.581139 0.419323 1.581139 0 
C 1.581139 -0.419323 1.41454 -0.821528 1.118034 -1.118034 
C 0.821528 -1.41454 0.419323 -1.581139 0 -1.581139 
C -0.419323 -1.581139 -0.821528 -1.41454 -1.118034 -1.118034 
C -1.41454 -0.821528 -1.581139 -0.419323 -1.581139 0 
C -1.581139 0.419323 -1.41454 0.821528 -1.118034 1.118034 
C -0.821528 1.41454 -0.419323 1.581139 0 1.581139 
z
" style="stroke: #000000; stroke-opacity: 0.8"/>
    </defs>
    <g clip-path="url(#p156a247f5e)">
     <use xlink:href="#m7f331f7108" x="186.790909" y="31.964125" style="fill-opacity: 0.8; stroke: #000000; stroke-opacity: 0.8"/>
     <use xlink:href="#m7f331f7108" x="126.656794" y="80.79472" style="fill-opacity: 0.8; stroke: #000000; stroke-opacity: 0.8"/>
     <use xlink:href="#m7f331f7108" x="99.216163" y="88.220014" style="fill-opacity: 0.8; stroke: #000000; stroke-opacity: 0.8"/>
     <use xlink:href="#m7f331f7108" x="144.267937" y="92.93366" style="fill-opacity: 0.8; stroke: #000000; stroke-opacity: 0.8"/>
     <use xlink:href="#m7f331f7108" x="79.598232" y="94.485" style="fill-opacity: 0.8; stroke: #000000; stroke-opacity: 0.8"/>
     <use xlink:href="#m7f331f7108" x="164.179691" y="98.363959" style="fill-opacity: 0.8; stroke: #000000; stroke-opacity: 0.8"/>
     <use xlink:href="#m7f331f7108" x="107.527099" y="116.580727" style="fill-opacity: 0.8; stroke: #000000; stroke-opacity: 0.8"/>
     <use xlink:href="#m7f331f7108" x="116.259264" y="121.827932" style="fill-opacity: 0.8; stroke: #000000; stroke-opacity: 0.8"/>
     <use xlink:href="#m7f331f7108" x="138.25792" y="132.965544" style="fill-opacity: 0.8; stroke: #000000; stroke-opacity: 0.8"/>
     <use xlink:href="#m7f331f7108" x="79.525945" y="137.823158" style="fill-opacity: 0.8; stroke: #000000; stroke-opacity: 0.8"/>
     <use xlink:href="#m7f331f7108" x="107.639253" y="138.538295" style="fill-opacity: 0.8; stroke: #000000; stroke-opacity: 0.8"/>
     <use xlink:href="#m7f331f7108" x="91.999904" y="141.085508" style="fill-opacity: 0.8; stroke: #000000; stroke-opacity: 0.8"/>
     <use xlink:href="#m7f331f7108" x="100.842152" y="144.084718" style="fill-opacity: 0.8; stroke: #000000; stroke-opacity: 0.8"/>
     <use xlink:href="#m7f331f7108" x="88.218651" y="144.849887" style="fill-opacity: 0.8; stroke: #000000; stroke-opacity: 0.8"/>
     <use xlink:href="#m7f331f7108" x="83.484833" y="149.174734" style="fill-opacity: 0.8; stroke: #000000; stroke-opacity: 0.8"/>
     <use xlink:href="#m7f331f7108" x="131.608514" y="149.578064" style="fill-opacity: 0.8; stroke: #000000; stroke-opacity: 0.8"/>
     <use xlink:href="#m7f331f7108" x="78.153" y="149.983152" style="fill-opacity: 0.8; stroke: #000000; stroke-opacity: 0.8"/>
     <use xlink:href="#m7f331f7108" x="81.643921" y="149.983152" style="fill-opacity: 0.8; stroke: #000000; stroke-opacity: 0.8"/>
     <use xlink:href="#m7f331f7108" x="113.751554" y="151.621387" style="fill-opacity: 0.8; stroke: #000000; stroke-opacity: 0.8"/>
     <use xlink:href="#m7f331f7108" x="122.079421" y="152.869291" style="fill-opacity: 0.8; stroke: #000000; stroke-opacity: 0.8"/>
     <use xlink:href="#m7f331f7108" x="113.054049" y="154.134174" style="fill-opacity: 0.8; stroke: #000000; stroke-opacity: 0.8"/>
     <use xlink:href="#m7f331f7108" x="94.108286" y="155.416504" style="fill-opacity: 0.8; stroke: #000000; stroke-opacity: 0.8"/>
     <use xlink:href="#m7f331f7108" x="137.207983" y="155.416504" style="fill-opacity: 0.8; stroke: #000000; stroke-opacity: 0.8"/>
     <use xlink:href="#m7f331f7108" x="83.335789" y="157.154264" style="fill-opacity: 0.8; stroke: #000000; stroke-opacity: 0.8"/>
     <use xlink:href="#m7f331f7108" x="80.559007" y="158.035478" style="fill-opacity: 0.8; stroke: #000000; stroke-opacity: 0.8"/>
     <use xlink:href="#m7f331f7108" x="88.410733" y="158.479238" style="fill-opacity: 0.8; stroke: #000000; stroke-opacity: 0.8"/>
     <use xlink:href="#m7f331f7108" x="120.059004" y="158.925126" style="fill-opacity: 0.8; stroke: #000000; stroke-opacity: 0.8"/>
     <use xlink:href="#m7f331f7108" x="116.227869" y="158.925126" style="fill-opacity: 0.8; stroke: #000000; stroke-opacity: 0.8"/>
     <use xlink:href="#m7f331f7108" x="79.589737" y="159.373163" style="fill-opacity: 0.8; stroke: #000000; stroke-opacity: 0.8"/>
     <use xlink:href="#m7f331f7108" x="78.657377" y="160.275766" style="fill-opacity: 0.8; stroke: #000000; stroke-opacity: 0.8"/>
     <use xlink:href="#m7f331f7108" x="106.657635" y="160.275766" style="fill-opacity: 0.8; stroke: #000000; stroke-opacity: 0.8"/>
     <use xlink:href="#m7f331f7108" x="61.168486" y="161.646319" style="fill-opacity: 0.8; stroke: #000000; stroke-opacity: 0.8"/>
     <use xlink:href="#m7f331f7108" x="125.754386" y="162.571376" style="fill-opacity: 0.8; stroke: #000000; stroke-opacity: 0.8"/>
     <use xlink:href="#m7f331f7108" x="117.107284" y="162.571376" style="fill-opacity: 0.8; stroke: #000000; stroke-opacity: 0.8"/>
     <use xlink:href="#m7f331f7108" x="102.806549" y="164.44957" style="fill-opacity: 0.8; stroke: #000000; stroke-opacity: 0.8"/>
     <use xlink:href="#m7f331f7108" x="102.146118" y="164.44957" style="fill-opacity: 0.8; stroke: #000000; stroke-opacity: 0.8"/>
     <use xlink:href="#m7f331f7108" x="112.110738" y="164.44957" style="fill-opacity: 0.8; stroke: #000000; stroke-opacity: 0.8"/>
     <use xlink:href="#m7f331f7108" x="126.726817" y="164.925108" style="fill-opacity: 0.8; stroke: #000000; stroke-opacity: 0.8"/>
     <use xlink:href="#m7f331f7108" x="90.738195" y="164.925108" style="fill-opacity: 0.8; stroke: #000000; stroke-opacity: 0.8"/>
     <use xlink:href="#m7f331f7108" x="105.556535" y="165.40309" style="fill-opacity: 0.8; stroke: #000000; stroke-opacity: 0.8"/>
     <use xlink:href="#m7f331f7108" x="127.360278" y="165.40309" style="fill-opacity: 0.8; stroke: #000000; stroke-opacity: 0.8"/>
     <use xlink:href="#m7f331f7108" x="101.450315" y="165.883543" style="fill-opacity: 0.8; stroke: #000000; stroke-opacity: 0.8"/>
     <use xlink:href="#m7f331f7108" x="34.609091" y="167.339982" style="fill-opacity: 0.8; stroke: #000000; stroke-opacity: 0.8"/>
     <use xlink:href="#m7f331f7108" x="87.264903" y="167.339982" style="fill-opacity: 0.8; stroke: #000000; stroke-opacity: 0.8"/>
     <use xlink:href="#m7f331f7108" x="108.01802" y="167.830577" style="fill-opacity: 0.8; stroke: #000000; stroke-opacity: 0.8"/>
     <use xlink:href="#m7f331f7108" x="94.242195" y="167.830577" style="fill-opacity: 0.8; stroke: #000000; stroke-opacity: 0.8"/>
     <use xlink:href="#m7f331f7108" x="128.210196" y="168.819602" style="fill-opacity: 0.8; stroke: #000000; stroke-opacity: 0.8"/>
     <use xlink:href="#m7f331f7108" x="98.008812" y="168.819602" style="fill-opacity: 0.8; stroke: #000000; stroke-opacity: 0.8"/>
    </g>
   </g>
   <g id="PolyCollection_1">
    <path d="M -66860.878904 149.231686 
L -66860.878904 172.368 
L 52.897925 169.284112 
L 73.094905 166.41881 
L 84.909381 163.572599 
L 93.291885 160.790834 
L 99.793861 158.226522 
L 105.106361 155.708778 
L 109.598017 153.461864 
L 113.488865 151.741789 
L 116.920837 150.20997 
L 119.990841 149.126007 
L 122.767997 148.445235 
L 125.303341 147.760034 
L 127.635633 146.808744 
L 129.794997 145.867721 
L 131.805317 144.986237 
L 133.685846 144.782538 
L 135.452331 144.472708 
L 137.117818 144.109457 
L 138.693233 143.738449 
L 140.187821 143.502981 
L 141.609473 143.028962 
L 142.964977 143.088732 
L 144.260216 143.145078 
L 145.500322 143.196867 
L 146.689796 143.066466 
L 147.832613 142.759481 
L 148.932294 142.248598 
L 149.991977 141.740508 
L 151.014471 141.23518 
L 152.002297 140.732584 
L 152.95773 140.430732 
L 153.882826 140.241129 
L 154.779453 140.051697 
L 155.649311 139.860124 
L 156.493952 139.668945 
L 157.314798 139.478158 
L 158.113151 139.26072 
L 158.890213 138.884098 
L 159.647089 138.508995 
L 160.384801 138.135399 
L 161.104297 137.763298 
L 161.806453 137.39206 
L 162.492087 137.020765 
L 163.161957 136.650947 
L 163.816773 136.282594 
L 164.457196 135.915694 
L 165.083846 135.550237 
L 165.697302 135.186211 
L 166.298108 134.823605 
L 166.886776 134.462408 
L 167.463787 134.102608 
L 168.029593 133.744196 
L 168.584621 133.38716 
L 169.129274 133.03149 
L 169.663932 132.677175 
L 170.188957 132.324206 
L 170.704689 131.972572 
L 171.211451 131.622263 
L 171.70955 131.273268 
L 172.199277 130.925579 
L 172.680909 130.579186 
L 173.15471 130.234078 
L 173.620929 129.890247 
L 174.079806 129.547683 
L 174.531568 129.206376 
L 174.976433 128.866318 
L 175.414608 128.527499 
L 175.846291 128.18991 
L 176.271672 127.853543 
L 176.690932 127.518389 
L 177.104246 127.184438 
L 177.511778 126.851683 
L 177.913689 126.520114 
L 178.310131 126.189724 
L 178.701252 125.860504 
L 179.087193 125.532445 
L 179.468088 125.20554 
L 179.844069 124.879781 
L 180.21526 124.555159 
L 180.581781 124.231667 
L 180.94375 123.909296 
L 181.301277 123.58804 
L 181.65447 123.28517 
L 182.003433 123.001388 
L 182.348267 122.71847 
L 182.689067 122.436409 
L 183.025927 122.155202 
L 183.358937 121.874843 
L 183.688185 121.595327 
L 184.013753 121.316649 
L 184.335724 121.038804 
L 184.654176 120.761786 
L 184.969186 120.485592 
L 185.280826 120.210215 
L 185.589168 119.935652 
L 185.894282 119.661898 
L 186.196234 119.388947 
L 186.495088 119.116795 
L 186.790909 118.845438 
L 186.790909 31.248 
L 186.790909 31.248 
L 186.495088 31.971852 
L 186.196234 32.703564 
L 185.894282 33.441082 
L 185.589168 34.184563 
L 185.280826 34.934085 
L 184.969186 35.689917 
L 184.654176 36.452231 
L 184.335724 37.220847 
L 184.013753 37.99587 
L 183.688185 38.777409 
L 183.358937 39.559535 
L 183.025927 40.306583 
L 182.689067 41.0612 
L 182.348267 41.869492 
L 182.003433 42.673025 
L 181.65447 43.4673 
L 181.301277 44.268583 
L 180.94375 45.077799 
L 180.581781 45.89412 
L 180.21526 46.717673 
L 179.844069 47.544685 
L 179.468088 48.378953 
L 179.087193 49.220776 
L 178.701252 50.070291 
L 178.310131 50.937156 
L 177.913689 51.81772 
L 177.511778 52.700385 
L 177.104246 53.580644 
L 176.690932 54.474916 
L 176.271672 55.377875 
L 175.846291 56.289689 
L 175.414608 57.210536 
L 174.976433 58.138305 
L 174.531568 59.068446 
L 174.079806 60.008207 
L 173.620929 60.945801 
L 173.15471 61.916943 
L 172.680909 62.920841 
L 172.199277 63.927036 
L 171.70955 64.927716 
L 171.211451 65.951059 
L 170.704689 66.977209 
L 170.188957 68.042795 
L 169.663932 69.106743 
L 169.129274 70.183009 
L 168.584621 71.266682 
L 168.029593 72.339345 
L 167.463787 73.424529 
L 166.886776 74.51498 
L 166.298108 75.637984 
L 165.697302 76.761735 
L 165.083846 77.927375 
L 164.457196 79.050827 
L 163.816773 80.216863 
L 163.161957 81.397709 
L 162.492087 82.593747 
L 161.806453 83.805373 
L 161.104297 85.030566 
L 160.384801 86.273642 
L 159.647089 87.533566 
L 158.890213 88.756166 
L 158.113151 90.103136 
L 157.314798 91.42242 
L 156.493952 92.755284 
L 155.649311 94.078883 
L 154.779453 95.418445 
L 153.882826 96.790708 
L 152.95773 98.218926 
L 152.002297 99.642673 
L 151.014471 101.05268 
L 149.991977 102.516583 
L 148.932294 104.02656 
L 147.832613 105.54066 
L 146.689796 106.944535 
L 145.500322 108.471814 
L 144.260216 110.074852 
L 142.964977 111.706016 
L 141.609473 113.366312 
L 140.187821 114.948603 
L 138.693233 116.743474 
L 137.117818 118.385402 
L 135.452331 120.094633 
L 133.685846 121.857356 
L 131.805317 123.590307 
L 129.794997 125.374233 
L 127.635633 127.290543 
L 125.303341 129.206837 
L 122.767997 131.0722 
L 119.990841 132.966222 
L 116.920837 134.926406 
L 113.488865 136.927392 
L 109.598017 138.809553 
L 105.106361 140.643575 
L 99.793861 142.422998 
L 93.291885 144.114467 
L 84.909381 145.678831 
L 73.094905 146.821145 
L 52.897925 148.273417 
L -66860.878904 149.231686 
z
" clip-path="url(#p156a247f5e)" style="fill-opacity: 0.15"/>
   </g>
   <g id="matplotlib.axis_1">
    <g id="xtick_1">
     <g id="line2d_1">
      <defs>
       <path id="m49a0046bf4" d="M 0 0 
L 0 3.5 
" style="stroke: #000000; stroke-width: 0.8"/>
      </defs>
      <g>
       <use xlink:href="#m49a0046bf4" x="30.758153" y="179.424" style="stroke: #000000; stroke-width: 0.8"/>
      </g>
     </g>
     <g id="text_1">
      <!-- $\mathdefault{10^{-3}}$ -->
      <g transform="translate(19.008153 194.022437) scale(0.1 -0.1)">
       <defs>
        <path id="DejaVuSans-31" d="M 794 531 
L 1825 531 
L 1825 4091 
L 703 3866 
L 703 4441 
L 1819 4666 
L 2450 4666 
L 2450 531 
L 3481 531 
L 3481 0 
L 794 0 
L 794 531 
z
" transform="scale(0.015625)"/>
        <path id="DejaVuSans-30" d="M 2034 4250 
Q 1547 4250 1301 3770 
Q 1056 3291 1056 2328 
Q 1056 1369 1301 889 
Q 1547 409 2034 409 
Q 2525 409 2770 889 
Q 3016 1369 3016 2328 
Q 3016 3291 2770 3770 
Q 2525 4250 2034 4250 
z
M 2034 4750 
Q 2819 4750 3233 4129 
Q 3647 3509 3647 2328 
Q 3647 1150 3233 529 
Q 2819 -91 2034 -91 
Q 1250 -91 836 529 
Q 422 1150 422 2328 
Q 422 3509 836 4129 
Q 1250 4750 2034 4750 
z
" transform="scale(0.015625)"/>
        <path id="DejaVuSans-2212" d="M 678 2272 
L 4684 2272 
L 4684 1741 
L 678 1741 
L 678 2272 
z
" transform="scale(0.015625)"/>
        <path id="DejaVuSans-33" d="M 2597 2516 
Q 3050 2419 3304 2112 
Q 3559 1806 3559 1356 
Q 3559 666 3084 287 
Q 2609 -91 1734 -91 
Q 1441 -91 1130 -33 
Q 819 25 488 141 
L 488 750 
Q 750 597 1062 519 
Q 1375 441 1716 441 
Q 2309 441 2620 675 
Q 2931 909 2931 1356 
Q 2931 1769 2642 2001 
Q 2353 2234 1838 2234 
L 1294 2234 
L 1294 2753 
L 1863 2753 
Q 2328 2753 2575 2939 
Q 2822 3125 2822 3475 
Q 2822 3834 2567 4026 
Q 2313 4219 1838 4219 
Q 1578 4219 1281 4162 
Q 984 4106 628 3988 
L 628 4550 
Q 988 4650 1302 4700 
Q 1616 4750 1894 4750 
Q 2613 4750 3031 4423 
Q 3450 4097 3450 3541 
Q 3450 3153 3228 2886 
Q 3006 2619 2597 2516 
z
" transform="scale(0.015625)"/>
       </defs>
       <use xlink:href="#DejaVuSans-31" transform="translate(0 0.765625)"/>
       <use xlink:href="#DejaVuSans-30" transform="translate(63.623047 0.765625)"/>
       <use xlink:href="#DejaVuSans-2212" transform="translate(128.203125 39.046875) scale(0.7)"/>
       <use xlink:href="#DejaVuSans-33" transform="translate(186.855469 39.046875) scale(0.7)"/>
      </g>
     </g>
    </g>
    <g id="xtick_2">
     <g id="line2d_2">
      <g>
       <use xlink:href="#m49a0046bf4" x="97.851069" y="179.424" style="stroke: #000000; stroke-width: 0.8"/>
      </g>
     </g>
     <g id="text_2">
      <!-- $\mathdefault{10^{-2}}$ -->
      <g transform="translate(86.101069 194.022437) scale(0.1 -0.1)">
       <defs>
        <path id="DejaVuSans-32" d="M 1228 531 
L 3431 531 
L 3431 0 
L 469 0 
L 469 531 
Q 828 903 1448 1529 
Q 2069 2156 2228 2338 
Q 2531 2678 2651 2914 
Q 2772 3150 2772 3378 
Q 2772 3750 2511 3984 
Q 2250 4219 1831 4219 
Q 1534 4219 1204 4116 
Q 875 4013 500 3803 
L 500 4441 
Q 881 4594 1212 4672 
Q 1544 4750 1819 4750 
Q 2544 4750 2975 4387 
Q 3406 4025 3406 3419 
Q 3406 3131 3298 2873 
Q 3191 2616 2906 2266 
Q 2828 2175 2409 1742 
Q 1991 1309 1228 531 
z
" transform="scale(0.015625)"/>
       </defs>
       <use xlink:href="#DejaVuSans-31" transform="translate(0 0.765625)"/>
       <use xlink:href="#DejaVuSans-30" transform="translate(63.623047 0.765625)"/>
       <use xlink:href="#DejaVuSans-2212" transform="translate(128.203125 39.046875) scale(0.7)"/>
       <use xlink:href="#DejaVuSans-32" transform="translate(186.855469 39.046875) scale(0.7)"/>
      </g>
     </g>
    </g>
    <g id="xtick_3">
     <g id="line2d_3">
      <g>
       <use xlink:href="#m49a0046bf4" x="164.943984" y="179.424" style="stroke: #000000; stroke-width: 0.8"/>
      </g>
     </g>
     <g id="text_3">
      <!-- $\mathdefault{10^{-1}}$ -->
      <g transform="translate(153.193984 194.022437) scale(0.1 -0.1)">
       <use xlink:href="#DejaVuSans-31" transform="translate(0 0.684375)"/>
       <use xlink:href="#DejaVuSans-30" transform="translate(63.623047 0.684375)"/>
       <use xlink:href="#DejaVuSans-2212" transform="translate(128.203125 38.965625) scale(0.7)"/>
       <use xlink:href="#DejaVuSans-31" transform="translate(186.855469 38.965625) scale(0.7)"/>
      </g>
     </g>
    </g>
    <g id="xtick_4">
     <g id="line2d_4">
      <defs>
       <path id="mb77a29dd4d" d="M 0 0 
L 0 2 
" style="stroke: #000000; stroke-width: 0.6"/>
      </defs>
      <g>
       <use xlink:href="#mb77a29dd4d" x="27.688149" y="179.424" style="stroke: #000000; stroke-width: 0.6"/>
      </g>
     </g>
    </g>
    <g id="xtick_5">
     <g id="line2d_5">
      <g>
       <use xlink:href="#mb77a29dd4d" x="50.955133" y="179.424" style="stroke: #000000; stroke-width: 0.6"/>
      </g>
     </g>
    </g>
    <g id="xtick_6">
     <g id="line2d_6">
      <g>
       <use xlink:href="#mb77a29dd4d" x="62.769609" y="179.424" style="stroke: #000000; stroke-width: 0.6"/>
      </g>
     </g>
    </g>
    <g id="xtick_7">
     <g id="line2d_7">
      <g>
       <use xlink:href="#mb77a29dd4d" x="71.152113" y="179.424" style="stroke: #000000; stroke-width: 0.6"/>
      </g>
     </g>
    </g>
    <g id="xtick_8">
     <g id="line2d_8">
      <g>
       <use xlink:href="#mb77a29dd4d" x="77.654088" y="179.424" style="stroke: #000000; stroke-width: 0.6"/>
      </g>
     </g>
    </g>
    <g id="xtick_9">
     <g id="line2d_9">
      <g>
       <use xlink:href="#mb77a29dd4d" x="82.966589" y="179.424" style="stroke: #000000; stroke-width: 0.6"/>
      </g>
     </g>
    </g>
    <g id="xtick_10">
     <g id="line2d_10">
      <g>
       <use xlink:href="#mb77a29dd4d" x="87.458244" y="179.424" style="stroke: #000000; stroke-width: 0.6"/>
      </g>
     </g>
    </g>
    <g id="xtick_11">
     <g id="line2d_11">
      <g>
       <use xlink:href="#mb77a29dd4d" x="91.349093" y="179.424" style="stroke: #000000; stroke-width: 0.6"/>
      </g>
     </g>
    </g>
    <g id="xtick_12">
     <g id="line2d_12">
      <g>
       <use xlink:href="#mb77a29dd4d" x="94.781065" y="179.424" style="stroke: #000000; stroke-width: 0.6"/>
      </g>
     </g>
    </g>
    <g id="xtick_13">
     <g id="line2d_13">
      <g>
       <use xlink:href="#mb77a29dd4d" x="118.048049" y="179.424" style="stroke: #000000; stroke-width: 0.6"/>
      </g>
     </g>
    </g>
    <g id="xtick_14">
     <g id="line2d_14">
      <g>
       <use xlink:href="#mb77a29dd4d" x="129.862525" y="179.424" style="stroke: #000000; stroke-width: 0.6"/>
      </g>
     </g>
    </g>
    <g id="xtick_15">
     <g id="line2d_15">
      <g>
       <use xlink:href="#mb77a29dd4d" x="138.245029" y="179.424" style="stroke: #000000; stroke-width: 0.6"/>
      </g>
     </g>
    </g>
    <g id="xtick_16">
     <g id="line2d_16">
      <g>
       <use xlink:href="#mb77a29dd4d" x="144.747004" y="179.424" style="stroke: #000000; stroke-width: 0.6"/>
      </g>
     </g>
    </g>
    <g id="xtick_17">
     <g id="line2d_17">
      <g>
       <use xlink:href="#mb77a29dd4d" x="150.059505" y="179.424" style="stroke: #000000; stroke-width: 0.6"/>
      </g>
     </g>
    </g>
    <g id="xtick_18">
     <g id="line2d_18">
      <g>
       <use xlink:href="#mb77a29dd4d" x="154.55116" y="179.424" style="stroke: #000000; stroke-width: 0.6"/>
      </g>
     </g>
    </g>
    <g id="xtick_19">
     <g id="line2d_19">
      <g>
       <use xlink:href="#mb77a29dd4d" x="158.442009" y="179.424" style="stroke: #000000; stroke-width: 0.6"/>
      </g>
     </g>
    </g>
    <g id="xtick_20">
     <g id="line2d_20">
      <g>
       <use xlink:href="#mb77a29dd4d" x="161.873981" y="179.424" style="stroke: #000000; stroke-width: 0.6"/>
      </g>
     </g>
    </g>
    <g id="xtick_21">
     <g id="line2d_21">
      <g>
       <use xlink:href="#mb77a29dd4d" x="185.140965" y="179.424" style="stroke: #000000; stroke-width: 0.6"/>
      </g>
     </g>
    </g>
    <g id="text_4">
     <!-- DNA -->
     <g transform="translate(99.689063 207.700562) scale(0.1 -0.1)">
      <defs>
       <path id="DejaVuSans-44" d="M 1259 4147 
L 1259 519 
L 2022 519 
Q 2988 519 3436 956 
Q 3884 1394 3884 2338 
Q 3884 3275 3436 3711 
Q 2988 4147 2022 4147 
L 1259 4147 
z
M 628 4666 
L 1925 4666 
Q 3281 4666 3915 4102 
Q 4550 3538 4550 2338 
Q 4550 1131 3912 565 
Q 3275 0 1925 0 
L 628 0 
L 628 4666 
z
" transform="scale(0.015625)"/>
       <path id="DejaVuSans-4e" d="M 628 4666 
L 1478 4666 
L 3547 763 
L 3547 4666 
L 4159 4666 
L 4159 0 
L 3309 0 
L 1241 3903 
L 1241 0 
L 628 0 
L 628 4666 
z
" transform="scale(0.015625)"/>
       <path id="DejaVuSans-41" d="M 2188 4044 
L 1331 1722 
L 3047 1722 
L 2188 4044 
z
M 1831 4666 
L 2547 4666 
L 4325 0 
L 3669 0 
L 3244 1197 
L 1141 1197 
L 716 0 
L 50 0 
L 1831 4666 
z
" transform="scale(0.015625)"/>
      </defs>
      <use xlink:href="#DejaVuSans-44"/>
      <use xlink:href="#DejaVuSans-4e" x="77.001953"/>
      <use xlink:href="#DejaVuSans-41" x="151.806641"/>
     </g>
    </g>
   </g>
   <g id="matplotlib.axis_2">
    <g id="ytick_1">
     <g id="line2d_22">
      <defs>
       <path id="m21cbf022d3" d="M 0 0 
L -2 0 
" style="stroke: #000000; stroke-width: 0.6"/>
      </defs>
      <g>
       <use xlink:href="#m21cbf022d3" x="27" y="141.477386" style="stroke: #000000; stroke-width: 0.6"/>
      </g>
     </g>
     <g id="text_5">
      <!-- $\mathdefault{2\times10^{-2}}$ -->
      <g transform="translate(-20.5 145.276605) scale(0.1 -0.1)">
       <defs>
        <path id="DejaVuSans-d7" d="M 4488 3438 
L 3059 2003 
L 4488 575 
L 4116 197 
L 2681 1631 
L 1247 197 
L 878 575 
L 2303 2003 
L 878 3438 
L 1247 3816 
L 2681 2381 
L 4116 3816 
L 4488 3438 
z
" transform="scale(0.015625)"/>
       </defs>
       <use xlink:href="#DejaVuSans-32" transform="translate(0 0.765625)"/>
       <use xlink:href="#DejaVuSans-d7" transform="translate(83.105469 0.765625)"/>
       <use xlink:href="#DejaVuSans-31" transform="translate(186.376953 0.765625)"/>
       <use xlink:href="#DejaVuSans-30" transform="translate(250 0.765625)"/>
       <use xlink:href="#DejaVuSans-2212" transform="translate(314.580078 39.046875) scale(0.7)"/>
       <use xlink:href="#DejaVuSans-32" transform="translate(373.232422 39.046875) scale(0.7)"/>
      </g>
     </g>
    </g>
    <g id="ytick_2">
     <g id="line2d_23">
      <g>
       <use xlink:href="#m21cbf022d3" x="27" y="103.782329" style="stroke: #000000; stroke-width: 0.6"/>
      </g>
     </g>
     <g id="text_6">
      <!-- $\mathdefault{3\times10^{-2}}$ -->
      <g transform="translate(-20.5 107.581548) scale(0.1 -0.1)">
       <use xlink:href="#DejaVuSans-33" transform="translate(0 0.765625)"/>
       <use xlink:href="#DejaVuSans-d7" transform="translate(83.105469 0.765625)"/>
       <use xlink:href="#DejaVuSans-31" transform="translate(186.376953 0.765625)"/>
       <use xlink:href="#DejaVuSans-30" transform="translate(250 0.765625)"/>
       <use xlink:href="#DejaVuSans-2212" transform="translate(314.580078 39.046875) scale(0.7)"/>
       <use xlink:href="#DejaVuSans-32" transform="translate(373.232422 39.046875) scale(0.7)"/>
      </g>
     </g>
    </g>
    <g id="ytick_3">
     <g id="line2d_24">
      <g>
       <use xlink:href="#m21cbf022d3" x="27" y="77.037261" style="stroke: #000000; stroke-width: 0.6"/>
      </g>
     </g>
     <g id="text_7">
      <!-- $\mathdefault{4\times10^{-2}}$ -->
      <g transform="translate(-20.5 80.836479) scale(0.1 -0.1)">
       <defs>
        <path id="DejaVuSans-34" d="M 2419 4116 
L 825 1625 
L 2419 1625 
L 2419 4116 
z
M 2253 4666 
L 3047 4666 
L 3047 1625 
L 3713 1625 
L 3713 1100 
L 3047 1100 
L 3047 0 
L 2419 0 
L 2419 1100 
L 313 1100 
L 313 1709 
L 2253 4666 
z
" transform="scale(0.015625)"/>
       </defs>
       <use xlink:href="#DejaVuSans-34" transform="translate(0 0.765625)"/>
       <use xlink:href="#DejaVuSans-d7" transform="translate(83.105469 0.765625)"/>
       <use xlink:href="#DejaVuSans-31" transform="translate(186.376953 0.765625)"/>
       <use xlink:href="#DejaVuSans-30" transform="translate(250 0.765625)"/>
       <use xlink:href="#DejaVuSans-2212" transform="translate(314.580078 39.046875) scale(0.7)"/>
       <use xlink:href="#DejaVuSans-32" transform="translate(373.232422 39.046875) scale(0.7)"/>
      </g>
     </g>
    </g>
    <g id="ytick_4">
     <g id="line2d_25">
      <g>
       <use xlink:href="#m21cbf022d3" x="27" y="56.292174" style="stroke: #000000; stroke-width: 0.6"/>
      </g>
     </g>
    </g>
    <g id="ytick_5">
     <g id="line2d_26">
      <g>
       <use xlink:href="#m21cbf022d3" x="27" y="39.342203" style="stroke: #000000; stroke-width: 0.6"/>
      </g>
     </g>
     <g id="text_8">
      <!-- $\mathdefault{6\times10^{-2}}$ -->
      <g transform="translate(-20.5 43.141422) scale(0.1 -0.1)">
       <defs>
        <path id="DejaVuSans-36" d="M 2113 2584 
Q 1688 2584 1439 2293 
Q 1191 2003 1191 1497 
Q 1191 994 1439 701 
Q 1688 409 2113 409 
Q 2538 409 2786 701 
Q 3034 994 3034 1497 
Q 3034 2003 2786 2293 
Q 2538 2584 2113 2584 
z
M 3366 4563 
L 3366 3988 
Q 3128 4100 2886 4159 
Q 2644 4219 2406 4219 
Q 1781 4219 1451 3797 
Q 1122 3375 1075 2522 
Q 1259 2794 1537 2939 
Q 1816 3084 2150 3084 
Q 2853 3084 3261 2657 
Q 3669 2231 3669 1497 
Q 3669 778 3244 343 
Q 2819 -91 2113 -91 
Q 1303 -91 875 529 
Q 447 1150 447 2328 
Q 447 3434 972 4092 
Q 1497 4750 2381 4750 
Q 2619 4750 2861 4703 
Q 3103 4656 3366 4563 
z
" transform="scale(0.015625)"/>
       </defs>
       <use xlink:href="#DejaVuSans-36" transform="translate(0 0.765625)"/>
       <use xlink:href="#DejaVuSans-d7" transform="translate(83.105469 0.765625)"/>
       <use xlink:href="#DejaVuSans-31" transform="translate(186.376953 0.765625)"/>
       <use xlink:href="#DejaVuSans-30" transform="translate(250 0.765625)"/>
       <use xlink:href="#DejaVuSans-2212" transform="translate(314.580078 39.046875) scale(0.7)"/>
       <use xlink:href="#DejaVuSans-32" transform="translate(373.232422 39.046875) scale(0.7)"/>
      </g>
     </g>
    </g>
    <g id="ytick_6">
     <g id="line2d_27">
      <g>
       <use xlink:href="#m21cbf022d3" x="27" y="25.011208" style="stroke: #000000; stroke-width: 0.6"/>
      </g>
     </g>
    </g>
    <g id="text_9">
     <!-- RNA -->
     <g transform="translate(-26.579687 112.443156) rotate(-90) scale(0.1 -0.1)">
      <defs>
       <path id="DejaVuSans-52" d="M 2841 2188 
Q 3044 2119 3236 1894 
Q 3428 1669 3622 1275 
L 4263 0 
L 3584 0 
L 2988 1197 
Q 2756 1666 2539 1819 
Q 2322 1972 1947 1972 
L 1259 1972 
L 1259 0 
L 628 0 
L 628 4666 
L 2053 4666 
Q 2853 4666 3247 4331 
Q 3641 3997 3641 3322 
Q 3641 2881 3436 2590 
Q 3231 2300 2841 2188 
z
M 1259 4147 
L 1259 2491 
L 2053 2491 
Q 2509 2491 2742 2702 
Q 2975 2913 2975 3322 
Q 2975 3731 2742 3939 
Q 2509 4147 2053 4147 
L 1259 4147 
z
" transform="scale(0.015625)"/>
      </defs>
      <use xlink:href="#DejaVuSans-52"/>
      <use xlink:href="#DejaVuSans-4e" x="69.482422"/>
      <use xlink:href="#DejaVuSans-41" x="144.287109"/>
     </g>
    </g>
   </g>
   <g id="line2d_28">
    <path d="M -1 161.030766 
L 52.897925 161.028638 
L 73.094905 158.460124 
L 84.909381 155.960668 
L 93.291885 153.526656 
L 99.793861 151.154747 
L 105.106361 148.84185 
L 109.598017 146.585101 
L 113.488865 144.381838 
L 116.920837 142.229585 
L 119.990841 140.126032 
L 122.767997 138.069024 
L 125.303341 136.056546 
L 127.635633 134.086712 
L 129.794997 132.15775 
L 131.805317 130.268 
L 133.685846 128.415899 
L 135.452331 126.599976 
L 137.117818 124.818844 
L 138.693233 123.071196 
L 140.187821 121.355796 
L 141.609473 119.671476 
L 142.964977 118.017128 
L 144.260216 116.391706 
L 145.500322 114.794214 
L 146.689796 113.22371 
L 147.832613 111.679296 
L 148.932294 110.16012 
L 149.991977 108.66537 
L 151.014471 107.194273 
L 152.002297 105.746092 
L 152.95773 104.320124 
L 153.882826 102.915699 
L 154.779453 101.532174 
L 155.649311 100.168937 
L 156.493952 98.825401 
L 157.314798 97.501006 
L 158.113151 96.195213 
L 158.890213 94.907506 
L 159.647089 93.637393 
L 160.384801 92.384398 
L 161.104297 91.148067 
L 161.806453 89.927961 
L 162.492087 88.723661 
L 163.161957 87.534762 
L 163.816773 86.360875 
L 164.457196 85.201627 
L 165.083846 84.056655 
L 165.697302 82.925613 
L 166.298108 81.808167 
L 166.886776 80.703992 
L 167.463787 79.612778 
L 168.029593 78.534224 
L 168.584621 77.468039 
L 169.129274 76.413943 
L 169.663932 75.371665 
L 170.188957 74.340942 
L 170.704689 73.321522 
L 171.211451 72.31316 
L 171.70955 71.315617 
L 172.199277 70.328664 
L 172.680909 69.352078 
L 173.15471 68.385645 
L 173.620929 67.429155 
L 174.079806 66.482406 
L 174.531568 65.545201 
L 174.976433 64.617349 
L 175.414608 63.698667 
L 175.846291 62.788974 
L 176.271672 61.888096 
L 176.690932 60.995864 
L 177.104246 60.112114 
L 177.511778 59.236686 
L 177.913689 58.369424 
L 178.310131 57.510178 
L 178.701252 56.658801 
L 179.087193 55.81515 
L 179.468088 54.979086 
L 179.844069 54.150474 
L 180.21526 53.329182 
L 180.581781 52.515082 
L 180.94375 51.708049 
L 181.301277 50.907962 
L 181.65447 50.114701 
L 182.003433 49.328152 
L 182.348267 48.548202 
L 182.689067 47.77474 
L 183.025927 47.007661 
L 183.358937 46.246859 
L 183.688185 45.492232 
L 184.013753 44.743682 
L 184.335724 44.001111 
L 184.654176 43.264424 
L 184.969186 42.533528 
L 185.280826 41.808334 
L 185.589168 41.088754 
L 185.894282 40.3747 
L 186.196234 39.666088 
L 186.495088 38.962837 
L 186.790909 38.264866 
" clip-path="url(#p156a247f5e)" style="fill: none; stroke: #000000; stroke-width: 2.25; stroke-linecap: square"/>
   </g>
   <g id="patch_3">
    <path d="M 27 179.424 
L 27 24.192 
" style="fill: none; stroke: #000000; stroke-width: 0.8; stroke-linejoin: miter; stroke-linecap: square"/>
   </g>
   <g id="patch_4">
    <path d="M 27 179.424 
L 194.4 179.424 
" style="fill: none; stroke: #000000; stroke-width: 0.8; stroke-linejoin: miter; stroke-linecap: square"/>
   </g>
   <g id="text_10">
    <!-- Pearson r: 0.7815 -->
    <g transform="translate(35.37 39.552038) scale(0.1 -0.1)">
     <defs>
      <path id="DejaVuSans-50" d="M 1259 4147 
L 1259 2394 
L 2053 2394 
Q 2494 2394 2734 2622 
Q 2975 2850 2975 3272 
Q 2975 3691 2734 3919 
Q 2494 4147 2053 4147 
L 1259 4147 
z
M 628 4666 
L 2053 4666 
Q 2838 4666 3239 4311 
Q 3641 3956 3641 3272 
Q 3641 2581 3239 2228 
Q 2838 1875 2053 1875 
L 1259 1875 
L 1259 0 
L 628 0 
L 628 4666 
z
" transform="scale(0.015625)"/>
      <path id="DejaVuSans-65" d="M 3597 1894 
L 3597 1613 
L 953 1613 
Q 991 1019 1311 708 
Q 1631 397 2203 397 
Q 2534 397 2845 478 
Q 3156 559 3463 722 
L 3463 178 
Q 3153 47 2828 -22 
Q 2503 -91 2169 -91 
Q 1331 -91 842 396 
Q 353 884 353 1716 
Q 353 2575 817 3079 
Q 1281 3584 2069 3584 
Q 2775 3584 3186 3129 
Q 3597 2675 3597 1894 
z
M 3022 2063 
Q 3016 2534 2758 2815 
Q 2500 3097 2075 3097 
Q 1594 3097 1305 2825 
Q 1016 2553 972 2059 
L 3022 2063 
z
" transform="scale(0.015625)"/>
      <path id="DejaVuSans-61" d="M 2194 1759 
Q 1497 1759 1228 1600 
Q 959 1441 959 1056 
Q 959 750 1161 570 
Q 1363 391 1709 391 
Q 2188 391 2477 730 
Q 2766 1069 2766 1631 
L 2766 1759 
L 2194 1759 
z
M 3341 1997 
L 3341 0 
L 2766 0 
L 2766 531 
Q 2569 213 2275 61 
Q 1981 -91 1556 -91 
Q 1019 -91 701 211 
Q 384 513 384 1019 
Q 384 1609 779 1909 
Q 1175 2209 1959 2209 
L 2766 2209 
L 2766 2266 
Q 2766 2663 2505 2880 
Q 2244 3097 1772 3097 
Q 1472 3097 1187 3025 
Q 903 2953 641 2809 
L 641 3341 
Q 956 3463 1253 3523 
Q 1550 3584 1831 3584 
Q 2591 3584 2966 3190 
Q 3341 2797 3341 1997 
z
" transform="scale(0.015625)"/>
      <path id="DejaVuSans-72" d="M 2631 2963 
Q 2534 3019 2420 3045 
Q 2306 3072 2169 3072 
Q 1681 3072 1420 2755 
Q 1159 2438 1159 1844 
L 1159 0 
L 581 0 
L 581 3500 
L 1159 3500 
L 1159 2956 
Q 1341 3275 1631 3429 
Q 1922 3584 2338 3584 
Q 2397 3584 2469 3576 
Q 2541 3569 2628 3553 
L 2631 2963 
z
" transform="scale(0.015625)"/>
      <path id="DejaVuSans-73" d="M 2834 3397 
L 2834 2853 
Q 2591 2978 2328 3040 
Q 2066 3103 1784 3103 
Q 1356 3103 1142 2972 
Q 928 2841 928 2578 
Q 928 2378 1081 2264 
Q 1234 2150 1697 2047 
L 1894 2003 
Q 2506 1872 2764 1633 
Q 3022 1394 3022 966 
Q 3022 478 2636 193 
Q 2250 -91 1575 -91 
Q 1294 -91 989 -36 
Q 684 19 347 128 
L 347 722 
Q 666 556 975 473 
Q 1284 391 1588 391 
Q 1994 391 2212 530 
Q 2431 669 2431 922 
Q 2431 1156 2273 1281 
Q 2116 1406 1581 1522 
L 1381 1569 
Q 847 1681 609 1914 
Q 372 2147 372 2553 
Q 372 3047 722 3315 
Q 1072 3584 1716 3584 
Q 2034 3584 2315 3537 
Q 2597 3491 2834 3397 
z
" transform="scale(0.015625)"/>
      <path id="DejaVuSans-6f" d="M 1959 3097 
Q 1497 3097 1228 2736 
Q 959 2375 959 1747 
Q 959 1119 1226 758 
Q 1494 397 1959 397 
Q 2419 397 2687 759 
Q 2956 1122 2956 1747 
Q 2956 2369 2687 2733 
Q 2419 3097 1959 3097 
z
M 1959 3584 
Q 2709 3584 3137 3096 
Q 3566 2609 3566 1747 
Q 3566 888 3137 398 
Q 2709 -91 1959 -91 
Q 1206 -91 779 398 
Q 353 888 353 1747 
Q 353 2609 779 3096 
Q 1206 3584 1959 3584 
z
" transform="scale(0.015625)"/>
      <path id="DejaVuSans-6e" d="M 3513 2113 
L 3513 0 
L 2938 0 
L 2938 2094 
Q 2938 2591 2744 2837 
Q 2550 3084 2163 3084 
Q 1697 3084 1428 2787 
Q 1159 2491 1159 1978 
L 1159 0 
L 581 0 
L 581 3500 
L 1159 3500 
L 1159 2956 
Q 1366 3272 1645 3428 
Q 1925 3584 2291 3584 
Q 2894 3584 3203 3211 
Q 3513 2838 3513 2113 
z
" transform="scale(0.015625)"/>
      <path id="DejaVuSans-20" transform="scale(0.015625)"/>
      <path id="DejaVuSans-3a" d="M 750 794 
L 1409 794 
L 1409 0 
L 750 0 
L 750 794 
z
M 750 3309 
L 1409 3309 
L 1409 2516 
L 750 2516 
L 750 3309 
z
" transform="scale(0.015625)"/>
      <path id="DejaVuSans-2e" d="M 684 794 
L 1344 794 
L 1344 0 
L 684 0 
L 684 794 
z
" transform="scale(0.015625)"/>
      <path id="DejaVuSans-37" d="M 525 4666 
L 3525 4666 
L 3525 4397 
L 1831 0 
L 1172 0 
L 2766 4134 
L 525 4134 
L 525 4666 
z
" transform="scale(0.015625)"/>
      <path id="DejaVuSans-38" d="M 2034 2216 
Q 1584 2216 1326 1975 
Q 1069 1734 1069 1313 
Q 1069 891 1326 650 
Q 1584 409 2034 409 
Q 2484 409 2743 651 
Q 3003 894 3003 1313 
Q 3003 1734 2745 1975 
Q 2488 2216 2034 2216 
z
M 1403 2484 
Q 997 2584 770 2862 
Q 544 3141 544 3541 
Q 544 4100 942 4425 
Q 1341 4750 2034 4750 
Q 2731 4750 3128 4425 
Q 3525 4100 3525 3541 
Q 3525 3141 3298 2862 
Q 3072 2584 2669 2484 
Q 3125 2378 3379 2068 
Q 3634 1759 3634 1313 
Q 3634 634 3220 271 
Q 2806 -91 2034 -91 
Q 1263 -91 848 271 
Q 434 634 434 1313 
Q 434 1759 690 2068 
Q 947 2378 1403 2484 
z
M 1172 3481 
Q 1172 3119 1398 2916 
Q 1625 2713 2034 2713 
Q 2441 2713 2670 2916 
Q 2900 3119 2900 3481 
Q 2900 3844 2670 4047 
Q 2441 4250 2034 4250 
Q 1625 4250 1398 4047 
Q 1172 3844 1172 3481 
z
" transform="scale(0.015625)"/>
      <path id="DejaVuSans-35" d="M 691 4666 
L 3169 4666 
L 3169 4134 
L 1269 4134 
L 1269 2991 
Q 1406 3038 1543 3061 
Q 1681 3084 1819 3084 
Q 2600 3084 3056 2656 
Q 3513 2228 3513 1497 
Q 3513 744 3044 326 
Q 2575 -91 1722 -91 
Q 1428 -91 1123 -41 
Q 819 9 494 109 
L 494 744 
Q 775 591 1075 516 
Q 1375 441 1709 441 
Q 2250 441 2565 725 
Q 2881 1009 2881 1497 
Q 2881 1984 2565 2268 
Q 2250 2553 1709 2553 
Q 1456 2553 1204 2497 
Q 953 2441 691 2322 
L 691 4666 
z
" transform="scale(0.015625)"/>
     </defs>
     <use xlink:href="#DejaVuSans-50"/>
     <use xlink:href="#DejaVuSans-65" x="56.677734"/>
     <use xlink:href="#DejaVuSans-61" x="118.201172"/>
     <use xlink:href="#DejaVuSans-72" x="179.480469"/>
     <use xlink:href="#DejaVuSans-73" x="220.59375"/>
     <use xlink:href="#DejaVuSans-6f" x="272.693359"/>
     <use xlink:href="#DejaVuSans-6e" x="333.875"/>
     <use xlink:href="#DejaVuSans-20" x="397.253906"/>
     <use xlink:href="#DejaVuSans-72" x="429.041016"/>
     <use xlink:href="#DejaVuSans-3a" x="468.404297"/>
     <use xlink:href="#DejaVuSans-20" x="502.095703"/>
     <use xlink:href="#DejaVuSans-30" x="533.882812"/>
     <use xlink:href="#DejaVuSans-2e" x="597.505859"/>
     <use xlink:href="#DejaVuSans-37" x="629.292969"/>
     <use xlink:href="#DejaVuSans-38" x="692.916016"/>
     <use xlink:href="#DejaVuSans-31" x="756.539062"/>
     <use xlink:href="#DejaVuSans-35" x="820.162109"/>
    </g>
    <!-- p-value: 0.0000 -->
    <g transform="translate(35.37 50.74985) scale(0.1 -0.1)">
     <defs>
      <path id="DejaVuSans-70" d="M 1159 525 
L 1159 -1331 
L 581 -1331 
L 581 3500 
L 1159 3500 
L 1159 2969 
Q 1341 3281 1617 3432 
Q 1894 3584 2278 3584 
Q 2916 3584 3314 3078 
Q 3713 2572 3713 1747 
Q 3713 922 3314 415 
Q 2916 -91 2278 -91 
Q 1894 -91 1617 61 
Q 1341 213 1159 525 
z
M 3116 1747 
Q 3116 2381 2855 2742 
Q 2594 3103 2138 3103 
Q 1681 3103 1420 2742 
Q 1159 2381 1159 1747 
Q 1159 1113 1420 752 
Q 1681 391 2138 391 
Q 2594 391 2855 752 
Q 3116 1113 3116 1747 
z
" transform="scale(0.015625)"/>
      <path id="DejaVuSans-2d" d="M 313 2009 
L 1997 2009 
L 1997 1497 
L 313 1497 
L 313 2009 
z
" transform="scale(0.015625)"/>
      <path id="DejaVuSans-76" d="M 191 3500 
L 800 3500 
L 1894 563 
L 2988 3500 
L 3597 3500 
L 2284 0 
L 1503 0 
L 191 3500 
z
" transform="scale(0.015625)"/>
      <path id="DejaVuSans-6c" d="M 603 4863 
L 1178 4863 
L 1178 0 
L 603 0 
L 603 4863 
z
" transform="scale(0.015625)"/>
      <path id="DejaVuSans-75" d="M 544 1381 
L 544 3500 
L 1119 3500 
L 1119 1403 
Q 1119 906 1312 657 
Q 1506 409 1894 409 
Q 2359 409 2629 706 
Q 2900 1003 2900 1516 
L 2900 3500 
L 3475 3500 
L 3475 0 
L 2900 0 
L 2900 538 
Q 2691 219 2414 64 
Q 2138 -91 1772 -91 
Q 1169 -91 856 284 
Q 544 659 544 1381 
z
M 1991 3584 
L 1991 3584 
z
" transform="scale(0.015625)"/>
     </defs>
     <use xlink:href="#DejaVuSans-70"/>
     <use xlink:href="#DejaVuSans-2d" x="63.476562"/>
     <use xlink:href="#DejaVuSans-76" x="96.935547"/>
     <use xlink:href="#DejaVuSans-61" x="156.115234"/>
     <use xlink:href="#DejaVuSans-6c" x="217.394531"/>
     <use xlink:href="#DejaVuSans-75" x="245.177734"/>
     <use xlink:href="#DejaVuSans-65" x="308.556641"/>
     <use xlink:href="#DejaVuSans-3a" x="370.080078"/>
     <use xlink:href="#DejaVuSans-20" x="403.771484"/>
     <use xlink:href="#DejaVuSans-30" x="435.558594"/>
     <use xlink:href="#DejaVuSans-2e" x="499.181641"/>
     <use xlink:href="#DejaVuSans-30" x="530.96875"/>
     <use xlink:href="#DejaVuSans-30" x="594.591797"/>
     <use xlink:href="#DejaVuSans-30" x="658.214844"/>
     <use xlink:href="#DejaVuSans-30" x="721.837891"/>
    </g>
   </g>
  </g>
 </g>
 <defs>
  <clipPath id="p156a247f5e">
   <rect x="27" y="24.192" width="167.4" height="155.232"/>
  </clipPath>
 </defs>
</svg>
